{
  "accessors": [
    {
      "bufferView": 3,
      "componentType": 5126,
      "count": 730,
      "max": [
        2.133850336074829,
        0.1424182951450348,
        -2.9559905529022217
      ],
      "min": [
        1.177877426147461,
        -0.4777814745903015,
        -4.446725368499756
      ],
      "type": "VEC3"
    },
    {
      "bufferView": 3,
      "byteOffset": 8760,
      "componentType": 5126,
      "count": 730,
      "max": [
        0.9968180060386658,
        0.9999871850013733,
        0.9999847412109375
      ],
      "min": [
        -0.9999598860740662,
        -0.9998334646224976,
        -0.9988601803779602
      ],
      "type": "VEC3"
    },
    {
      "bufferView": 2,
      "componentType": 5126,
      "count": 730,
      "max": [
        0.43366050720214844,
        0.993973970413208
      ],
      "min": [
        0.0010704994201660156,
        0.0021409988403320313
      ],
      "type": "VEC2"
    },
    {
      "bufferView": 1,
      "componentType": 5125,
      "count": 2637,
      "type": "SCALAR"
    },
    {
      "bufferView": 3,
      "byteOffset": 17520,
      "componentType": 5126,
      "count": 3963,
      "max": [
        1.2049906253814697,
        0.5533285737037659,
        -1.9306703805923462
      ],
      "min": [
        -2.004310369491577,
        -1.473703145980835,
        -5.301880359649658
      ],
      "type": "VEC3"
    },
    {
      "bufferView": 3,
      "byteOffset": 65076,
      "componentType": 5126,
      "count": 3963,
      "max": [
        1.0,
        1.0,
        0.9985133409500122
      ],
      "min": [
        -1.0,
        -1.0,
        -0.9993680119514465
      ],
      "type": "VEC3"
    },
    {
      "bufferView": 2,
      "byteOffset": 5840,
      "componentType": 5126,
      "count": 3963,
      "max": [
        0.9989053606987,
        0.9953839778900146
      ],
      "min": [
        0.0010705000022426248,
        0.0021409988403320313
      ],
      "type": "VEC2"
    },
    {
      "bufferView": 1,
      "byteOffset": 10548,
      "componentType": 5125,
      "count": 14667,
      "type": "SCALAR"
    },
    {
      "bufferView": 3,
      "byteOffset": 112632,
      "componentType": 5126,
      "count": 1523,
      "max": [
        2.043670892715454,
        0.15665140748023987,
        -2.4797022342681885
      ],
      "min": [
        -2.133850336074829,
        -0.4777814745903015,
        -4.680227279663086
      ],
      "type": "VEC3"
    },
    {
      "bufferView": 3,
      "byteOffset": 130908,
      "componentType": 5126,
      "count": 1523,
      "max": [
        0.9999598860740662,
        1.0,
        0.999984622001648
      ],
      "min": [
        -0.9998574256896973,
        -0.9999997019767761,
        -0.9988601803779602
      ],
      "type": "VEC3"
    },
    {
      "bufferView": 2,
      "byteOffset": 37544,
      "componentType": 5126,
      "count": 1523,
      "max": [
        0.9989053606987,
        0.9954900145530701
      ],
      "min": [
        0.0010704994201660156,
        0.0021409988403320313
      ],
      "type": "VEC2"
    },
    {
      "bufferView": 1,
      "byteOffset": 69216,
      "componentType": 5125,
      "count": 5463,
      "type": "SCALAR"
    },
    {
      "bufferView": 3,
      "byteOffset": 149184,
      "componentType": 5126,
      "count": 3949,
      "max": [
        2.0419704914093018,
        0.7127541303634644,
        0.08014889061450958
      ],
      "min": [
        -1.444753646850586,
        -0.9433107972145081,
        -5.05596923828125
      ],
      "type": "VEC3"
    },
    {
      "bufferView": 3,
      "byteOffset": 196572,
      "componentType": 5126,
      "count": 3949,
      "max": [
        1.0,
        1.0,
        0.9999497532844543
      ],
      "min": [
        -1.0,
        -0.9999997019767761,
        -0.9976195693016052
      ],
      "type": "VEC3"
    },
    {
      "bufferView": 2,
      "byteOffset": 49728,
      "componentType": 5126,
      "count": 3949,
      "max": [
        0.9989053606987,
        0.9954900145530701
      ],
      "min": [
        0.0010704994201660156,
        0.0021409988403320313
      ],
      "type": "VEC2"
    },
    {
      "bufferView": 1,
      "byteOffset": 91068,
      "componentType": 5125,
      "count": 14745,
      "type": "SCALAR"
    },
    {
      "bufferView": 3,
      "byteOffset": 243960,
      "componentType": 5126,
      "count": 116,
      "max": [
        0.6185078620910645,
        0.24575777351856232,
        -2.927341938018799
      ],
      "min": [
        -0.6185081005096436,
        -0.3776140809059143,
        -3.7357521057128906
      ],
      "type": "VEC3"
    },
    {
      "bufferView": 3,
      "byteOffset": 245352,
      "componentType": 5126,
      "count": 116,
      "max": [
        0.9966150522232056,
        0.9079335331916809,
        0.859523355960846
      ],
      "min": [
        -0.9966152906417847,
        -0.9999115467071533,
        -0.7119356393814087
      ],
      "type": "VEC3"
    },
    {
      "bufferView": 2,
      "byteOffset": 81320,
      "componentType": 5126,
      "count": 116,
      "max": [
        0.9818813800811768,
        0.9928179979324341
      ],
      "min": [
        0.01809450052678585,
        0.1871570348739624
      ],
      "type": "VEC2"
    },
    {
      "bufferView": 1,
      "byteOffset": 150048,
      "componentType": 5125,
      "count": 342,
      "type": "SCALAR"
    },
    {
      "bufferView": 3,
      "byteOffset": 246744,
      "componentType": 5126,
      "count": 1712,
      "max": [
        0.304750919342041,
        0.3368699550628662,
        -4.428704738616943
      ],
      "min": [
        -0.3047523498535156,
        -0.35059255361557007,
        -5.203210353851318
      ],
      "type": "VEC3"
    },
    {
      "bufferView": 3,
      "byteOffset": 267288,
      "componentType": 5126,
      "count": 1712,
      "max": [
        1.0,
        1.0,
        0.9982380270957947
      ],
      "min": [
        -1.0,
        -0.9936051964759827,
        -0.995419979095459
      ],
      "type": "VEC3"
    },
    {
      "bufferView": 2,
      "byteOffset": 82248,
      "componentType": 5126,
      "count": 1712,
      "max": [
        0.9989070296287537,
        0.9943529963493347
      ],
      "min": [
        0.0010849999962374568,
        0.0021700263023376465
      ],
      "type": "VEC2"
    },
    {
      "bufferView": 1,
      "byteOffset": 151416,
      "componentType": 5125,
      "count": 6528,
      "type": "SCALAR"
    },
    {
      "bufferView": 3,
      "byteOffset": 287832,
      "componentType": 5126,
      "count": 40,
      "max": [
        0.19541120529174805,
        -0.000813312828540802,
        -4.6204729080200195
      ],
      "min": [
        -0.19541263580322266,
        -0.2137141078710556,
        -4.775542736053467
      ],
      "type": "VEC3"
    },
    {
      "bufferView": 3,
      "byteOffset": 288312,
      "componentType": 5126,
      "count": 40,
      "max": [
        0.9279806017875671,
        0.5511202216148376,
        0.7817497849464417
      ],
      "min": [
        -0.9279817342758179,
        -0.9626936316490173,
        -0.9499335885047913
      ],
      "type": "VEC3"
    },
    {
      "bufferView": 2,
      "byteOffset": 95944,
      "componentType": 5126,
      "count": 40,
      "max": [
        0.8886175155639648,
        0.8304809927940369
      ],
      "min": [
        0.11137449741363525,
        0.0021700263023376465
      ],
      "type": "VEC2"
    },
    {
      "bufferView": 1,
      "byteOffset": 177528,
      "componentType": 5125,
      "count": 84,
      "type": "SCALAR"
    },
    {
      "bufferView": 3,
      "byteOffset": 288792,
      "componentType": 5126,
      "count": 24,
      "max": [
        0.6232872009277344,
        -0.5621772408485413,
        -4.751980304718018
      ],
      "min": [
        -0.6232887506484985,
        -1.1384153366088867,
        -5.527365207672119
      ],
      "type": "VEC3"
    },
    {
      "bufferView": 3,
      "byteOffset": 289080,
      "componentType": 5126,
      "count": 24,
      "max": [
        0.8462827801704407,
        0.9889343976974487,
        0.8477928042411804
      ],
      "min": [
        -0.8462830781936646,
        -0.06128443405032158,
        -0.543251097202301
      ],
      "type": "VEC3"
    },
    {
      "bufferView": 2,
      "byteOffset": 96264,
      "componentType": 5126,
      "count": 24,
      "max": [
        0.930167555809021,
        1.6342464685440063
      ],
      "min": [
        -0.14787429571151733,
        0.003357112407684326
      ],
      "type": "VEC2"
    },
    {
      "bufferView": 1,
      "byteOffset": 177864,
      "componentType": 5125,
      "count": 84,
      "type": "SCALAR"
    },
    {
      "bufferView": 3,
      "byteOffset": 289368,
      "componentType": 5126,
      "count": 12,
      "max": [
        0.6232872009277344,
        -0.5621772408485413,
        -4.751980304718018
      ],
      "min": [
        -0.6232887506484985,
        -1.1335928440093994,
        -5.526014804840088
      ],
      "type": "VEC3"
    },
    {
      "bufferView": 3,
      "byteOffset": 289512,
      "componentType": 5126,
      "count": 12,
      "max": [
        0.8357052206993103,
        -0.14784562587738037,
        0.5289051532745361
      ],
      "min": [
        -0.8357062935829163,
        -0.1478516310453415,
        0.5289006233215332
      ],
      "type": "VEC3"
    },
    {
      "bufferView": 2,
      "byteOffset": 96456,
      "componentType": 5126,
      "count": 12,
      "max": [
        0.8212513327598572,
        0.7502829432487488
      ],
      "min": [
        -0.14787429571151733,
        0.003357112407684326
      ],
      "type": "VEC2"
    },
    {
      "bufferView": 1,
      "byteOffset": 178200,
      "componentType": 5125,
      "count": 24,
      "type": "SCALAR"
    },
    {
      "bufferView": 5,
      "componentType": 5126,
      "count": 55,
      "max": [
        2.5399999618530273,
        0.8969908356666565,
        0.03890341520309448,
        0.0,
        0.6548903584480286,
        2.5399999618530273,
        1.0000004768371582,
        0.0,
        0.8969908356666565,
        1.0000004768371582,
        2.5399999618530273,
        0.0,
        3.56270694732666,
        4.179678916931152,
        3.735501289367676,
        1.0
      ],
      "min": [
        0.44204890727996826,
        -0.6656806468963623,
        -0.4953966736793518,
        0.0,
        -0.6548903584480286,
        -0.7347332835197449,
        -1.0000004768371582,
        0.0,
        -0.8969908356666565,
        -1.0000004768371582,
        -0.9355149269104004,
        0.0,
        -3.5627079010009766,
        -4.660985946655273,
        -3.735499620437622,
        1.0
      ],
      "type": "MAT4"
    },
    {
      "bufferView": 0,
      "componentType": 5123,
      "count": 730,
      "type": "VEC4"
    },
    {
      "bufferView": 4,
      "componentType": 5126,
      "count": 730,
      "max": [
        1.0,
        0.0,
        0.0,
        0.0
      ],
      "min": [
        1.0,
        0.0,
        0.0,
        0.0
      ],
      "type": "VEC4"
    },
    {
      "bufferView": 0,
      "byteOffset": 5840,
      "componentType": 5123,
      "count": 3963,
      "type": "VEC4"
    },
    {
      "bufferView": 4,
      "byteOffset": 11680,
      "componentType": 5126,
      "count": 3963,
      "max": [
        1.0,
        0.5,
        0.077113576233387,
        0.0
      ],
      "min": [
        0.5,
        0.0,
        0.0,
        0.0
      ],
      "type": "VEC4"
    },
    {
      "bufferView": 0,
      "byteOffset": 37544,
      "componentType": 5123,
      "count": 1523,
      "type": "VEC4"
    },
    {
      "bufferView": 4,
      "byteOffset": 75088,
      "componentType": 5126,
      "count": 1523,
      "max": [
        1.0,
        0.5,
        0.0,
        0.0
      ],
      "min": [
        0.5,
        0.0,
        0.0,
        0.0
      ],
      "type": "VEC4"
    },
    {
      "bufferView": 0,
      "byteOffset": 49728,
      "componentType": 5123,
      "count": 3949,
      "type": "VEC4"
    },
    {
      "bufferView": 4,
      "byteOffset": 99456,
      "componentType": 5126,
      "count": 3949,
      "max": [
        1.0,
        0.5,
        0.0,
        0.0
      ],
      "min": [
        0.5,
        0.0,
        0.0,
        0.0
      ],
      "type": "VEC4"
    },
    {
      "bufferView": 0,
      "byteOffset": 81320,
      "componentType": 5123,
      "count": 116,
      "type": "VEC4"
    },
    {
      "bufferView": 4,
      "byteOffset": 162640,
      "componentType": 5126,
      "count": 116,
      "max": [
        1.0,
        0.4999988377094269,
        0.26713427901268005,
        0.0
      ],
      "min": [
        0.4328978359699249,
        0.0,
        0.0,
        0.0
      ],
      "type": "VEC4"
    },
    {
      "bufferView": 0,
      "byteOffset": 82248,
      "componentType": 5123,
      "count": 1712,
      "type": "VEC4"
    },
    {
      "bufferView": 4,
      "byteOffset": 164496,
      "componentType": 5126,
      "count": 1712,
      "max": [
        1.0,
        0.5,
        0.0,
        0.0
      ],
      "min": [
        0.5,
        0.0,
        0.0,
        0.0
      ],
      "type": "VEC4"
    },
    {
      "bufferView": 0,
      "byteOffset": 95944,
      "componentType": 5123,
      "count": 40,
      "type": "VEC4"
    },
    {
      "bufferView": 4,
      "byteOffset": 191888,
      "componentType": 5126,
      "count": 40,
      "max": [
        1.0,
        0.5,
        0.0,
        0.0
      ],
      "min": [
        0.5,
        0.0,
        0.0,
        0.0
      ],
      "type": "VEC4"
    },
    {
      "bufferView": 0,
      "byteOffset": 96264,
      "componentType": 5123,
      "count": 24,
      "type": "VEC4"
    },
    {
      "bufferView": 4,
      "byteOffset": 192528,
      "componentType": 5126,
      "count": 24,
      "max": [
        1.0,
        0.0,
        0.0,
        0.0
      ],
      "min": [
        1.0,
        0.0,
        0.0,
        0.0
      ],
      "type": "VEC4"
    },
    {
      "bufferView": 0,
      "byteOffset": 96456,
      "componentType": 5123,
      "count": 12,
      "type": "VEC4"
    },
    {
      "bufferView": 4,
      "byteOffset": 192912,
      "componentType": 5126,
      "count": 12,
      "max": [
        1.0,
        0.0,
        0.0,
        0.0
      ],
      "min": [
        1.0,
        0.0,
        0.0,
        0.0
      ],
      "type": "VEC4"
    }
  ],
  "asset": {
    "extras": {
      "author": "Kairi DC2 (https://sketchfab.com/spritetrap)",
      "license": "CC-BY-4.0 (http://creativecommons.org/licenses/by/4.0/)",
      "source": "https://sketchfab.com/3d-models/bumblebee-robot-transformers-human-alliance-119ac044a97d48f0a1c150653de93aa6",
      "title": "Bumblebee Robot Transformers Human Alliance"
    },
    "generator": "Sketchfab-16.16.0",
    "version": "2.0"
  },
  "bufferViews": [
    {
      "buffer": 0,
      "byteLength": 96552,
      "byteStride": 8,
      "name": "shortBufferViews",
      "target": 34962
    },
    {
      "buffer": 0,
      "byteLength": 178296,
      "byteOffset": 96552,
      "name": "floatBufferViews",
      "target": 34963
    },
    {
      "buffer": 0,
      "byteLength": 96552,
      "byteOffset": 274848,
      "byteStride": 8,
      "name": "floatBufferViews",
      "target": 34962
    },
    {
      "buffer": 0,
      "byteLength": 289656,
      "byteOffset": 371400,
      "byteStride": 12,
      "name": "floatBufferViews",
      "target": 34962
    },
    {
      "buffer": 0,
      "byteLength": 193104,
      "byteOffset": 661056,
      "byteStride": 16,
      "name": "floatBufferViews",
      "target": 34962
    },
    {
      "buffer": 0,
      "byteLength": 3520,
      "byteOffset": 854160,
      "name": "floatBufferViews"
    }
  ],
  "buffers": [
    {
      "byteLength": 857680,
      "uri": "scene.bin"
    }
  ],
  "extensionsUsed": [
    "KHR_materials_clearcoat",
    "KHR_materials_specular"
  ],
  "images": [
    {
      "uri": "textures/Body_baseColor.png"
    },
    {
      "uri": "textures/Body_metallicRoughness.png"
    },
    {
      "uri": "textures/Body_specularf0.png"
    },
    {
      "uri": "textures/Head_baseColor.png"
    },
    {
      "uri": "textures/Head_metallicRoughness.png"
    },
    {
      "uri": "textures/Head_specularf0.png"
    }
  ],
  "materials": [
    {
      "doubleSided": true,
      "extensions": {
        "KHR_materials_clearcoat": {
          "clearcoatFactor": 1.0,
          "clearcoatRoughnessFactor": 0.04
        },
        "KHR_materials_specular": {
          "specularColorFactor": [
            1.0,
            1.0,
            1.0
          ],
          "specularFactor": 1.0,
          "specularTexture": {
            "index": 2
          }
        }
      },
      "name": "Body",
      "pbrMetallicRoughness": {
        "baseColorTexture": {
          "index": 0
        },
        "metallicRoughnessTexture": {
          "index": 1
        },
        "roughnessFactor": 0.10573712634405641
      }
    },
    {
      "doubleSided": true,
      "extensions": {
        "KHR_materials_specular": {
          "specularColorFactor": [
            1.0,
            1.0,
            1.0
          ],
          "specularFactor": 1.0,
          "specularTexture": {
            "index": 5
          }
        }
      },
      "name": "Head",
      "pbrMetallicRoughness": {
        "baseColorTexture": {
          "index": 3
        },
        "metallicRoughnessTexture": {
          "index": 4
        }
      }
    },
    {
      "doubleSided": true,
      "name": "Glass",
      "pbrMetallicRoughness": {
        "baseColorFactor": [
          0.0,
          0.0,
          0.0,
          1.0
        ],
        "metallicFactor": 0.0,
        "roughnessFactor": 0.683772233983162
      }
    }
  ],
  "meshes": [
    {
      "name": "44_Body_0",
      "primitives": [
        {
          "attributes": {
            "JOINTS_0": 37,
            "NORMAL": 1,
            "POSITION": 0,
            "TEXCOORD_0": 2,
            "TEXCOORD_1": 2,
            "WEIGHTS_0": 38
          },
          "indices": 3,
          "material": 0,
          "mode": 4
        }
      ]
    },
    {
      "name": "48_Body_0",
      "primitives": [
        {
          "attributes": {
            "JOINTS_0": 39,
            "NORMAL": 5,
            "POSITION": 4,
            "TEXCOORD_0": 6,
            "TEXCOORD_1": 6,
            "WEIGHTS_0": 40
          },
          "indices": 7,
          "material": 0,
          "mode": 4
        }
      ]
    },
    {
      "name": "48_Body_0",
      "primitives": [
        {
          "attributes": {
            "JOINTS_0": 41,
            "NORMAL": 9,
            "POSITION": 8,
            "TEXCOORD_0": 10,
            "TEXCOORD_1": 10,
            "WEIGHTS_0": 42
          },
          "indices": 11,
          "material": 0,
          "mode": 4
        }
      ]
    },
    {
      "name": "48_Body_0",
      "primitives": [
        {
          "attributes": {
            "JOINTS_0": 43,
            "NORMAL": 13,
            "POSITION": 12,
            "TEXCOORD_0": 14,
            "TEXCOORD_1": 14,
            "WEIGHTS_0": 44
          },
          "indices": 15,
          "material": 0,
          "mode": 4
        }
      ]
    },
    {
      "name": "48_Body_0",
      "primitives": [
        {
          "attributes": {
            "JOINTS_0": 45,
            "NORMAL": 17,
            "POSITION": 16,
            "TEXCOORD_0": 18,
            "TEXCOORD_1": 18,
            "WEIGHTS_0": 46
          },
          "indices": 19,
          "material": 0,
          "mode": 4
        }
      ]
    },
    {
      "name": "44_Head_0",
      "primitives": [
        {
          "attributes": {
            "JOINTS_0": 47,
            "NORMAL": 21,
            "POSITION": 20,
            "TEXCOORD_0": 22,
            "TEXCOORD_1": 22,
            "TEXCOORD_2": 22,
            "WEIGHTS_0": 48
          },
          "indices": 23,
          "material": 1,
          "mode": 4
        }
      ]
    },
    {
      "name": "48_Head_0",
      "primitives": [
        {
          "attributes": {
            "JOINTS_0": 49,
            "NORMAL": 25,
            "POSITION": 24,
            "TEXCOORD_0": 26,
            "TEXCOORD_1": 26,
            "TEXCOORD_2": 26,
            "WEIGHTS_0": 50
          },
          "indices": 27,
          "material": 1,
          "mode": 4
        }
      ]
    },
    {
      "name": "24_Glass_0",
      "primitives": [
        {
          "attributes": {
            "JOINTS_0": 51,
            "NORMAL": 29,
            "POSITION": 28,
            "TEXCOORD_0": 30,
            "WEIGHTS_0": 52
          },
          "indices": 31,
          "material": 2,
          "mode": 4
        }
      ]
    },
    {
      "name": "24_Glass_0",
      "primitives": [
        {
          "attributes": {
            "JOINTS_0": 53,
            "NORMAL": 33,
            "POSITION": 32,
            "TEXCOORD_0": 34,
            "WEIGHTS_0": 54
          },
          "indices": 35,
          "material": 2,
          "mode": 4
        }
      ]
    }
  ],
  "nodes": [
    {
      "children": [
        1
      ],
      "matrix": [
        1.0,
        0.0,
        0.0,
        0.0,
        0.0,
        2.220446049250313e-16,
        -1.0,
        0.0,
        0.0,
        1.0,
        2.220446049250313e-16,
        0.0,
        0.0,
        0.0,
        0.0,
        1.0
      ],
      "name": "Sketchfab_model"
    },
    {
      "children": [
        2
      ],
      "matrix": [
        0.009999999776482582,
        0.0,
        0.0,
        0.0,
        0.0,
        0.0,
        0.009999999776482582,
        0.0,
        0.0,
        -0.009999999776482582,
        0.0,
        0.0,
        0.0,
        0.0,
        0.0,
        1.0
      ],
      "name": "a90348f52a164f5ba4e8262577b21a88.fbx"
    },
    {
      "children": [
        3
      ],
      "name": "RootNode"
    },
    {
      "children": [
        4,
        6,
        8,
        10,
        12,
        14,
        16,
        18,
        20,
        22,
        5,
        7,
        9,
        11,
        13,
        15,
        17,
        19,
        21
      ],
      "name": "Object_3"
    },
    {
      "children": [
        23
      ],
      "name": "_rootJoint"
    },
    {
      "matrix": [
        2.5400000000000005,
        0.0,
        -1.4336967771822245e-17,
        0.0,
        -1.4336967771822242e-17,
        1.5553014349171386e-16,
        -2.54,
        0.0,
        8.778860845620435e-34,
        2.54,
        1.5553014349171386e-16,
        0.0,
        8.881784197001252e-16,
        0.0,
        0.0,
        1.0
      ],
      "name": "Object_5"
    },
    {
      "mesh": 0,
      "name": "Object_6",
      "skin": 0
    },
    {
      "matrix": [
        2.5400000000000005,
        0.0,
        0.0,
        0.0,
        0.0,
        1.5553014349171388e-16,
        -2.5400000000000005,
        0.0,
        0.0,
        2.5400000000000005,
        1.5553014349171388e-16,
        0.0,
        0.0,
        -9.860761315262648e-32,
        8.881784197001252e-16,
        1.0
      ],
      "name": "Object_7"
    },
    {
      "mesh": 1,
      "name": "Object_8",
      "skin": 0
    },
    {
      "matrix": [
        2.5400000000000005,
        0.0,
        -1.271437953831833e-17,
        0.0,
        -1.2714379538318329e-17,
        1.5553014349171386e-16,
        -2.54,
        0.0,
        7.785312102373071e-34,
        2.54,
        1.5553014349171386e-16,
        0.0,
        8.881784197001252e-16,
        0.0,
        -8.881784197001252e-16,
        1.0
      ],
      "name": "Object_9"
    },
    {
      "mesh": 2,
      "name": "Object_10",
      "skin": 0
    },
    {
      "matrix": [
        2.5399999999999996,
        6.617444900424222e-24,
        3.203441080455345e-16,
        0.0,
        3.203441080455345e-16,
        1.5553014349171383e-16,
        -2.5399999999999996,
        0.0,
        -6.617444920039641e-24,
        2.5399999999999996,
        1.5553014349171383e-16,
        0.0,
        4.440892098500626e-16,
        -5.551115123125783e-17,
        0.0,
        1.0
      ],
      "name": "Object_11"
    },
    {
      "mesh": 3,
      "name": "Object_12",
      "skin": 0
    },
    {
      "matrix": [
        2.5400000000000005,
        0.0,
        0.0,
        0.0,
        0.0,
        1.5553014349171388e-16,
        -2.5400000000000005,
        0.0,
        0.0,
        2.5400000000000005,
        1.5553014349171388e-16,
        0.0,
        0.0,
        -9.860761315262648e-32,
        8.881784197001252e-16,
        1.0
      ],
      "name": "Object_13"
    },
    {
      "mesh": 4,
      "name": "Object_14",
      "skin": 0
    },
    {
      "matrix": [
        2.54,
        0.0,
        0.0,
        0.0,
        0.0,
        1.5553014349171383e-16,
        -2.5399999999999996,
        0.0,
        0.0,
        2.5399999999999996,
        1.5553014349171383e-16,
        0.0,
        0.0,
        9.587036534379392e-18,
        0.0,
        1.0
      ],
      "name": "Object_15"
    },
    {
      "mesh": 5,
      "name": "Object_16",
      "skin": 0
    },
    {
      "matrix": [
        2.5399999999999996,
        0.0,
        0.0,
        0.0,
        0.0,
        7.195234400012935e-16,
        -2.5400000000000005,
        0.0,
        0.0,
        2.54,
        7.195234400012934e-16,
        0.0,
        0.0,
        -1.4235272769247214e-16,
        0.0,
        1.0
      ],
      "name": "Object_17"
    },
    {
      "mesh": 6,
      "name": "Object_18",
      "skin": 0
    },
    {
      "matrix": [
        2.54,
        0.0,
        0.0,
        0.0,
        0.0,
        1.5553014349171386e-16,
        -2.54,
        0.0,
        0.0,
        2.54,
        1.5553014349171386e-16,
        0.0,
        2.220446049250313e-16,
        -1.3322676295501878e-15,
        0.0,
        1.0
      ],
      "name": "Object_19"
    },
    {
      "mesh": 7,
      "name": "Object_20",
      "skin": 0
    },
    {
      "matrix": [
        2.54,
        0.0,
        0.0,
        0.0,
        0.0,
        1.5553014349171386e-16,
        -2.54,
        0.0,
        0.0,
        2.54,
        1.5553014349171386e-16,
        0.0,
        2.220446049250313e-16,
        -1.3322676295501878e-15,
        0.0,
        1.0
      ],
      "name": "Object_21"
    },
    {
      "mesh": 8,
      "name": "Object_22",
      "skin": 0
    },
    {
      "children": [
        24
      ],
      "name": "Root_01",
      "scale": [
        2.5399999618530273,
        2.5399999618530273,
        2.5399999618530273
      ]
    },
    {
      "children": [
        25,
        68
      ],
      "name": "Bip_Pelvis_02",
      "translation": [
        0.0,
        3.2093796730041504,
        0.0
      ]
    },
    {
      "children": [
        26
      ],
      "name": "Bip_Spine_0_03",
      "translation": [
        0.0,
        -8.881784197001252e-16,
        0.0
      ]
    },
    {
      "children": [
        27,
        41,
        43,
        44,
        48,
        49,
        51,
        65,
        66,
        67
      ],
      "name": "Bip_Spine_1_04",
      "rotation": [
        -0.10452860593795776,
        -0.0,
        0.0,
        0.994521975517273
      ],
      "translation": [
        0.0,
        0.5499997138977051,
        1.7881393432617188e-07
      ]
    },
    {
      "children": [
        28,
        39,
        40
      ],
      "name": "Bip_Collar_L_05",
      "rotation": [
        0.1030595451593399,
        -0.01746327616274357,
        0.16615156829357147,
        0.9805445671081543
      ],
      "scale": [
        1.0,
        0.9999998211860657,
        0.9999999403953552
      ],
      "translation": [
        0.46771740913391113,
        0.6986649036407471,
        -0.010914146900177002
      ]
    },
    {
      "children": [
        29
      ],
      "name": "Bip_UpperArm_L_06",
      "rotation": [
        -8.800693507282631e-09,
        3.0643477089142834e-08,
        0.19509035348892212,
        0.9807853698730469
      ],
      "scale": [
        1.000000238418579,
        1.0,
        1.0000001192092896
      ],
      "translation": [
        0.33000028133392334,
        -7.152557373046875e-07,
        8.940696716308594e-08
      ]
    },
    {
      "children": [
        30
      ],
      "name": "Bip_LowerArm_L_07",
      "rotation": [
        2.417069877580502e-10,
        1.3385484942673997e-09,
        -0.047978151589632034,
        0.9988483786582947
      ],
      "scale": [
        1.0000001192092896,
        1.0000001192092896,
        0.9999999403953552
      ],
      "translation": [
        -4.76837158203125e-07,
        -0.880000114440918,
        4.470348358154297e-08
      ]
    },
    {
      "children": [
        31,
        33,
        35,
        37
      ],
      "name": "Bip_Hand_L_08",
      "rotation": [
        3.551846740578986e-15,
        2.9103726373325145e-11,
        2.980232949312267e-08,
        1.0
      ],
      "scale": [
        0.9999998211860657,
        0.9999998807907104,
        1.0
      ],
      "translation": [
        9.5367431640625e-07,
        -0.9299991130828857,
        0.0
      ]
    },
    {
      "children": [
        32
      ],
      "name": "Bip_Thumb_0_L_09",
      "rotation": [
        1.7616056391389634e-09,
        -3.4288250017056043e-09,
        -0.7660444974899292,
        0.642787516117096
      ],
      "scale": [
        1.0000001192092896,
        1.0,
        1.0
      ],
      "translation": [
        -0.03414654731750488,
        -0.02817225456237793,
        0.12999999523162842
      ]
    },
    {
      "name": "Bip_Thumb_1_L_010",
      "rotation": [
        -3.841705620288849e-09,
        4.656650065548718e-10,
        7.557458904229892e-17,
        1.0
      ],
      "scale": [
        0.9999997615814209,
        0.9999998807907104,
        1.0
      ],
      "translation": [
        -3.5762786865234375e-07,
        -0.19999933242797852,
        7.450580596923828e-09
      ]
    },
    {
      "children": [
        34
      ],
      "name": "Bip_Index_0_L_011",
      "rotation": [
        -0.06473615765571594,
        0.011998150497674942,
        -0.18184031546115875,
        0.9811215996742249
      ],
      "scale": [
        1.0000001192092896,
        1.0000001192092896,
        1.000000238418579
      ],
      "translation": [
        -0.08867144584655762,
        -0.16851270198822021,
        0.10970351099967957
      ]
    },
    {
      "name": "Bip_Index_1_L_012",
      "rotation": [
        -7.450584149637507e-09,
        1.6204169117628453e-09,
        1.377815124214976e-07,
        1.0
      ],
      "scale": [
        0.9999998211860657,
        0.9999996423721313,
        0.9999999403953552
      ],
      "translation": [
        -2.384185791015625e-07,
        -0.18000054359436035,
        -5.960464477539063e-08
      ]
    },
    {
      "children": [
        36
      ],
      "name": "Bip_Middle_0_L_013",
      "rotation": [
        -1.1985671344305615e-09,
        -2.6276134601488366e-09,
        -0.18223543465137482,
        0.9832550287246704
      ],
      "scale": [
        0.9999999403953552,
        1.0,
        1.0
      ],
      "translation": [
        -0.08907389640808105,
        -0.1753237247467041,
        -0.017099007964134216
      ]
    },
    {
      "name": "Bip_Middle_1_L_00",
      "rotation": [
        1.0918785347877414e-22,
        4.440892627896218e-16,
        -2.384185791015625e-07,
        1.0
      ],
      "translation": [
        0.0,
        -0.20499920845031738,
        -2.7755575615628914e-17
      ]
    },
    {
      "children": [
        38
      ],
      "name": "Bip_Pinky_0_L_014",
      "rotation": [
        0.07298672944307327,
        -0.013527276925742626,
        -0.18173262476921082,
        0.9805423021316528
      ],
      "scale": [
        0.9999999403953552,
        1.0,
        1.0
      ],
      "translation": [
        -0.08899998664855957,
        -0.16900014877319336,
        -0.14105580747127533
      ]
    },
    {
      "name": "Bip_Pinky_1_L_015",
      "rotation": [
        1.4901159417490817e-08,
        7.717024241848947e-10,
        -2.446684561618895e-07,
        1.0
      ],
      "scale": [
        1.0000001192092896,
        1.0,
        1.0000001192092896
      ],
      "translation": [
        4.440892098500626e-16,
        -0.17000126838684082,
        2.384185791015625e-07
      ]
    },
    {
      "name": "Bn_ShoulderPad_L_016",
      "rotation": [
        1.8069019613875525e-09,
        3.103570378470977e-08,
        -0.002659761579707265,
        0.9999964833259583
      ],
      "scale": [
        1.0000001192092896,
        1.000000238418579,
        1.0000001192092896
      ],
      "translation": [
        0.7529715299606323,
        0.19408035278320313,
        8.940696716308594e-08
      ]
    },
    {
      "name": "Bn_Tire_L_017",
      "rotation": [
        0.23553822934627533,
        -0.18981555104255676,
        -0.21214216947555542,
        0.9292402863502502
      ],
      "scale": [
        1.0000001192092896,
        1.0000001192092896,
        1.000000238418579
      ],
      "translation": [
        0.11851835250854492,
        0.04103803634643555,
        -0.29145145416259766
      ]
    },
    {
      "children": [
        42
      ],
      "name": "Bn_Door_1_L_018",
      "rotation": [
        0.413817822933197,
        -0.2823115587234497,
        -0.008155032061040401,
        0.8654412031173706
      ],
      "scale": [
        1.0,
        1.0000001192092896,
        0.9999998211860657
      ],
      "translation": [
        0.18796324729919434,
        0.7750580310821533,
        -0.6709609627723694
      ]
    },
    {
      "name": "Bn_Door_2_L_019",
      "rotation": [
        1.192093321833454e-07,
        -1.1920926112907182e-07,
        3.129244134925102e-07,
        1.0
      ],
      "scale": [
        0.9999999403953552,
        0.9999997615814209,
        1.0000003576278687
      ],
      "translation": [
        2.980232238769531e-07,
        0.025784730911254883,
        -0.5709517002105713
      ]
    },
    {
      "name": "Bn_Wing_Lower_L_020",
      "rotation": [
        -0.47456634044647217,
        -0.30170732736587524,
        -0.1895032674074173,
        0.8048900365829468
      ],
      "scale": [
        0.9999998211860657,
        1.0,
        1.0
      ],
      "translation": [
        0.3056776523590088,
        0.41387391090393066,
        -0.7189109325408936
      ]
    },
    {
      "children": [
        45,
        47
      ],
      "name": "Bip_Neck_021",
      "rotation": [
        0.249699205160141,
        0.0,
        0.0,
        0.9683234691619873
      ],
      "scale": [
        1.0,
        0.9999999403953552,
        0.9999998211860657
      ],
      "translation": [
        0.0,
        0.8500001430511475,
        0.030000030994415283
      ]
    },
    {
      "children": [
        46
      ],
      "name": "Bip_Head_022",
      "rotation": [
        -0.03466399386525154,
        -0.0,
        0.0,
        0.9993991255760193
      ],
      "scale": [
        1.0,
        1.0000001192092896,
        1.000000238418579
      ],
      "translation": [
        0.0,
        0.2714385986328125,
        0.059566617012023926
      ]
    },
    {
      "name": "Bip_Head_022_0"
    },
    {
      "name": "Bip_Neck_021_0"
    },
    {
      "name": "Bn_Wing_Lower_R_023",
      "rotation": [
        0.8048900365829468,
        0.18950337171554565,
        -0.3017074167728424,
        0.4745663106441498
      ],
      "scale": [
        1.0,
        0.9999999403953552,
        0.9999999403953552
      ],
      "translation": [
        -0.3056769371032715,
        0.41387486457824707,
        -0.7189104557037354
      ]
    },
    {
      "children": [
        50
      ],
      "name": "Bn_Door_1_R_024",
      "rotation": [
        0.8654412627220154,
        0.008154984563589096,
        -0.2823115885257721,
        -0.41381776332855225
      ],
      "scale": [
        0.9999998807907104,
        1.0,
        0.9999996423721313
      ],
      "translation": [
        -0.18796312808990479,
        0.7750566005706787,
        -0.6709602475166321
      ]
    },
    {
      "name": "Bn_Door_R_2_025",
      "rotation": [
        -2.9802322387695313e-08,
        -4.470347292340193e-08,
        1.4901155864777138e-08,
        1.0
      ],
      "scale": [
        1.000000238418579,
        1.0,
        0.9999999403953552
      ],
      "translation": [
        8.940696716308594e-07,
        -0.025780677795410156,
        0.5709517002105713
      ]
    },
    {
      "children": [
        52,
        63,
        64
      ],
      "name": "Bip_Collar_R_026",
      "rotation": [
        0.9805446267127991,
        -0.16615135967731476,
        -0.017463259398937225,
        -0.1030595675110817
      ],
      "scale": [
        0.9999999403953552,
        0.9999997615814209,
        0.9999998807907104
      ],
      "translation": [
        -0.4677170515060425,
        0.6986677646636963,
        -0.010913491249084473
      ]
    },
    {
      "children": [
        53
      ],
      "name": "Bip_UpperArm_R_027",
      "rotation": [
        -1.519961578821949e-08,
        4.505179518332625e-08,
        0.195090651512146,
        0.9807853102684021
      ],
      "scale": [
        1.0000003576278687,
        0.9999998807907104,
        0.9999997615814209
      ],
      "translation": [
        -0.3299992084503174,
        5.245208740234375e-06,
        -1.341104507446289e-07
      ]
    },
    {
      "children": [
        54
      ],
      "name": "Bip_LowerArm_R_028",
      "rotation": [
        -7.423795467254024e-10,
        -1.1810431521652731e-09,
        -0.04797852411866188,
        0.9988483786582947
      ],
      "scale": [
        1.0,
        1.000000238418579,
        0.9999999403953552
      ],
      "translation": [
        -4.76837158203125e-07,
        0.880003809928894,
        -8.940696716308594e-08
      ]
    },
    {
      "children": [
        55,
        57,
        59,
        61
      ],
      "name": "Bip_Hand_R_029",
      "rotation": [
        2.328325310330115e-10,
        1.8626438169633275e-09,
        -4.470348713425665e-08,
        1.0
      ],
      "scale": [
        0.9999997019767761,
        0.9999998807907104,
        1.0
      ],
      "translation": [
        3.814697265625e-06,
        0.9299957752227783,
        -1.043081283569336e-07
      ]
    },
    {
      "children": [
        56
      ],
      "name": "Bip_Thumb_0_R_030",
      "rotation": [
        -5.807081748798737e-08,
        6.913987959933365e-08,
        -0.7660443186759949,
        0.642787754535675
      ],
      "scale": [
        0.9999999403953552,
        0.9999998211860657,
        1.0000001192092896
      ],
      "translation": [
        0.034142494201660156,
        0.02816605567932129,
        -0.12999990582466125
      ]
    },
    {
      "name": "Bip_Thumb_1_R_031",
      "rotation": [
        -8.777718818464564e-08,
        5.821075566014855e-11,
        -1.4901158529312397e-08,
        1.0
      ],
      "scale": [
        1.0,
        0.9999998211860657,
        1.0
      ],
      "translation": [
        2.384185791015625e-07,
        0.20000123977661133,
        2.9802322387695313e-08
      ]
    },
    {
      "children": [
        58
      ],
      "name": "Bip_Index_0_R_032",
      "rotation": [
        -0.06473617255687714,
        0.011998133733868599,
        -0.18184009194374084,
        0.9811215400695801
      ],
      "scale": [
        0.9999997019767761,
        0.9999999403953552,
        1.000000238418579
      ],
      "translation": [
        0.08866286277770996,
        0.16851186752319336,
        -0.109703429043293
      ]
    },
    {
      "name": "Bip_Index_1_R_033",
      "rotation": [
        4.470348358154297e-08,
        -6.45920539277256e-11,
        1.5880100789900098e-08,
        1.0
      ],
      "scale": [
        1.000000238418579,
        1.0,
        1.0000001192092896
      ],
      "translation": [
        -2.384185791015625e-07,
        0.18000125885009766,
        2.9802322387695313e-08
      ]
    },
    {
      "children": [
        60
      ],
      "name": "Bip_Middle_0_R_034",
      "rotation": [
        -3.165903997293107e-11,
        3.521054336985685e-09,
        -0.1822354942560196,
        0.9832549095153809
      ],
      "scale": [
        0.9999997615814209,
        0.9999999403953552,
        1.0000001192092896
      ],
      "translation": [
        0.0890653133392334,
        0.17532014846801758,
        0.017099007964134216
      ]
    },
    {
      "name": "Bip_Middle_1_R_035",
      "rotation": [
        6.984900990936183e-10,
        -5.820766091346741e-11,
        -5.393832222128092e-16,
        1.0
      ],
      "scale": [
        1.0000001192092896,
        1.0000001192092896,
        1.0
      ],
      "translation": [
        0.0,
        0.20500469207763672,
        -2.7755575615628914e-17
      ]
    },
    {
      "children": [
        62
      ],
      "name": "Bip_Pinky_0_R_036",
      "rotation": [
        0.07298676669597626,
        -0.013527276925742626,
        -0.1817326694726944,
        0.9805423021316528
      ],
      "scale": [
        0.9999996423721313,
        0.9999998211860657,
        1.0000001192092896
      ],
      "translation": [
        0.08899545669555664,
        0.1689993143081665,
        0.1410558819770813
      ]
    },
    {
      "name": "Bip_Pinky_1_R_037",
      "rotation": [
        -1.3477665656271531e-17,
        1.155797124674507e-09,
        1.1660926446666053e-08,
        1.0
      ],
      "scale": [
        1.0000001192092896,
        1.0000001192092896,
        1.0
      ],
      "translation": [
        2.384185791015625e-07,
        0.17000102996826172,
        -7.748603820800781e-07
      ]
    },
    {
      "name": "Bn_ShoulderPad_R_038",
      "rotation": [
        -3.815356475200815e-09,
        3.295037842576676e-08,
        -0.002659314777702093,
        0.9999964833259583
      ],
      "scale": [
        1.0000001192092896,
        0.9999998807907104,
        0.9999997615814209
      ],
      "translation": [
        -0.7529716491699219,
        -0.1940760612487793,
        -1.043081283569336e-07
      ]
    },
    {
      "name": "Bn_Tire_R_039",
      "rotation": [
        0.23553809523582458,
        -0.1898154318332672,
        -0.21214213967323303,
        0.929240345954895
      ],
      "scale": [
        1.0000001192092896,
        0.9999999403953552,
        0.9999997615814209
      ],
      "translation": [
        -0.11851739883422852,
        -0.04103517532348633,
        0.2914506793022156
      ]
    },
    {
      "name": "Bip_Spine_1_04_0"
    },
    {
      "name": "Bip_Spine_1_04_1"
    },
    {
      "name": "Bip_Spine_1_04_2"
    },
    {
      "children": [
        69,
        73
      ],
      "name": "Bn_Pelvis_040",
      "translation": [
        0.0,
        -8.881784197001252e-16,
        0.0
      ]
    },
    {
      "children": [
        70
      ],
      "name": "Bip_Hip_L_041",
      "rotation": [
        -0.04795471578836441,
        0.001500260317698121,
        0.031233685091137886,
        0.9983600378036499
      ],
      "scale": [
        1.000000238418579,
        1.0000001192092896,
        1.0000001192092896
      ],
      "translation": [
        0.6062762141227722,
        -0.2918543815612793,
        -0.13208027184009552
      ]
    },
    {
      "children": [
        71
      ],
      "name": "Bip_Knee_L_042",
      "rotation": [
        0.14776839315891266,
        -0.0034824630711227655,
        -0.023301713168621063,
        0.9887413382530212
      ],
      "scale": [
        0.9999997019767761,
        1.0,
        0.9999999403953552
      ],
      "translation": [
        1.7881393432617188e-07,
        -0.760000467300415,
        2.7755575615628914e-17
      ]
    },
    {
      "children": [
        72
      ],
      "name": "Bip_Foot_L_043",
      "rotation": [
        -0.10017501562833786,
        -0.0006988505483604968,
        -0.007241502869874239,
        0.9949432611465454
      ],
      "scale": [
        1.0,
        0.9999998807907104,
        0.9999997615814209
      ],
      "translation": [
        -1.7881393432617188e-07,
        -1.5699992179870605,
        -2.384185791015625e-07
      ]
    },
    {
      "name": "Bip_Toe_L_044",
      "rotation": [
        5.020593363269654e-08,
        4.714823198526119e-09,
        4.927253982600632e-08,
        1.0
      ],
      "scale": [
        1.0000001192092896,
        0.9999998807907104,
        1.0
      ],
      "translation": [
        1.1920928955078125e-07,
        -0.37015804648399353,
        0.37484681606292725
      ]
    },
    {
      "children": [
        74
      ],
      "name": "Bip_Hip_R_045",
      "rotation": [
        0.9983599185943604,
        -0.0312337726354599,
        0.0015003663720563054,
        0.04795466363430023
      ],
      "scale": [
        1.0,
        1.0000001192092896,
        1.000000238418579
      ],
      "translation": [
        -0.6062759757041931,
        -0.29184961318969727,
        -0.13208000361919403
      ]
    },
    {
      "children": [
        75
      ],
      "name": "Bip_Knee_R_046",
      "rotation": [
        0.14776842296123505,
        -0.00348273036070168,
        -0.02330188825726509,
        0.9887413382530212
      ],
      "scale": [
        1.0000001192092896,
        0.9999997615814209,
        0.9999998211860657
      ],
      "translation": [
        1.1920928955078125e-07,
        0.7600095272064209,
        1.1771917343139648e-06
      ]
    },
    {
      "children": [
        76
      ],
      "name": "Bip_Foot_R_047",
      "rotation": [
        -0.10017502307891846,
        -0.0006986374501138926,
        -0.007241248618811369,
        0.9949432611465454
      ],
      "scale": [
        1.0,
        1.000000238418579,
        1.0
      ],
      "translation": [
        -2.384185791015625e-07,
        1.5699952840805054,
        1.1026859283447266e-06
      ]
    },
    {
      "name": "Bip_Toe_R_048",
      "rotation": [
        2.7284845389996537e-12,
        -5.238688927100554e-10,
        3.3805666599384665e-10,
        1.0
      ],
      "scale": [
        1.000000238418579,
        1.0,
        1.0
      ],
      "translation": [
        1.7881393432617188e-07,
        0.3701575994491577,
        -0.3748471438884735
      ]
    }
  ],
  "samplers": [
    {
      "magFilter": 9729,
      "minFilter": 9987,
      "wrapS": 10497,
      "wrapT": 10497
    }
  ],
  "scene": 0,
  "scenes": [
    {
      "name": "Sketchfab_Scene",
      "nodes": [
        0
      ]
    }
  ],
  "skins": [
    {
      "inverseBindMatrices": 36,
      "joints": [
        4,
        23,
        24,
        25,
        26,
        27,
        28,
        29,
        30,
        31,
        32,
        33,
        34,
        35,
        36,
        37,
        38,
        39,
        40,
        41,
        42,
        43,
        44,
        45,
        46,
        47,
        48,
        49,
        50,
        51,
        52,
        53,
        54,
        55,
        56,
        57,
        58,
        59,
        60,
        61,
        62,
        63,
        64,
        65,
        66,
        67,
        68,
        69,
        70,
        71,
        72,
        73,
        74,
        75,
        76
      ],
      "skeleton": 4
    }
  ],
  "textures": [
    {
      "sampler": 0,
      "source": 0
    },
    {
      "sampler": 0,
      "source": 1
    },
    {
      "sampler": 0,
      "source": 2
    },
    {
      "sampler": 0,
      "source": 3
    },
    {
      "sampler": 0,
      "source": 4
    },
    {
      "sampler": 0,
      "source": 5
    }
  ]
}
